<mxfile host="app.diagrams.net" modified="2021-04-01T00:38:33.924Z" agent="5.0 (Windows NT 10.0; Win64; x64) AppleWebKit/537.36 (KHTML, like Gecko) Chrome/89.0.4389.90 Safari/537.36" etag="zuqvPBOiLjpml9MzS2ow" version="14.5.4" type="github">
  <diagram id="R2lEEEUBdFMjLlhIrx00" name="Page-1">
    <mxGraphModel dx="1422" dy="762" grid="1" gridSize="10" guides="1" tooltips="1" connect="1" arrows="1" fold="1" page="1" pageScale="1" pageWidth="850" pageHeight="1100" math="0" shadow="0" extFonts="Permanent Marker^https://fonts.googleapis.com/css?family=Permanent+Marker">
      <root>
        <mxCell id="0" />
        <mxCell id="1" parent="0" />
        <mxCell id="YNA8yrxuX6oOjRcGY2ZD-1" value="Heros" style="rounded=0;whiteSpace=wrap;html=1;" parent="1" vertex="1">
          <mxGeometry x="115" y="490" width="120" height="60" as="geometry" />
        </mxCell>
        <mxCell id="YNA8yrxuX6oOjRcGY2ZD-2" value="&lt;u&gt;VIN&lt;/u&gt;" style="ellipse;whiteSpace=wrap;html=1;" parent="1" vertex="1">
          <mxGeometry x="315" y="970" width="85" height="40" as="geometry" />
        </mxCell>
        <mxCell id="YNA8yrxuX6oOjRcGY2ZD-4" value="Color Scheme" style="ellipse;whiteSpace=wrap;html=1;" parent="1" vertex="1">
          <mxGeometry x="270" y="580" width="85" height="40" as="geometry" />
        </mxCell>
        <mxCell id="YNA8yrxuX6oOjRcGY2ZD-5" value="Catch Phrase" style="ellipse;whiteSpace=wrap;html=1;" parent="1" vertex="1">
          <mxGeometry x="310" y="450" width="85" height="40" as="geometry" />
        </mxCell>
        <mxCell id="YNA8yrxuX6oOjRcGY2ZD-6" value="" style="endArrow=none;html=1;exitX=0.5;exitY=0;exitDx=0;exitDy=0;" parent="1" source="YNA8yrxuX6oOjRcGY2ZD-2" edge="1">
          <mxGeometry width="50" height="50" relative="1" as="geometry">
            <mxPoint x="380" y="940" as="sourcePoint" />
            <mxPoint x="410" y="910" as="targetPoint" />
          </mxGeometry>
        </mxCell>
        <mxCell id="YNA8yrxuX6oOjRcGY2ZD-8" value="" style="endArrow=none;html=1;exitX=0.5;exitY=0;exitDx=0;exitDy=0;" parent="1" source="YNA8yrxuX6oOjRcGY2ZD-4" edge="1">
          <mxGeometry width="50" height="50" relative="1" as="geometry">
            <mxPoint x="205" y="610" as="sourcePoint" />
            <mxPoint x="230" y="550" as="targetPoint" />
          </mxGeometry>
        </mxCell>
        <mxCell id="YNA8yrxuX6oOjRcGY2ZD-9" value="" style="endArrow=none;html=1;entryX=0;entryY=0.5;entryDx=0;entryDy=0;exitX=1;exitY=0.25;exitDx=0;exitDy=0;" parent="1" source="YNA8yrxuX6oOjRcGY2ZD-1" target="YNA8yrxuX6oOjRcGY2ZD-5" edge="1">
          <mxGeometry width="50" height="50" relative="1" as="geometry">
            <mxPoint x="235" y="520" as="sourcePoint" />
            <mxPoint x="285" y="470" as="targetPoint" />
          </mxGeometry>
        </mxCell>
        <mxCell id="YNA8yrxuX6oOjRcGY2ZD-10" value="Villains" style="rounded=0;whiteSpace=wrap;html=1;" parent="1" vertex="1">
          <mxGeometry x="565" y="490" width="120" height="60" as="geometry" />
        </mxCell>
        <mxCell id="YNA8yrxuX6oOjRcGY2ZD-11" value="&lt;u&gt;Name&lt;/u&gt;" style="ellipse;whiteSpace=wrap;html=1;" parent="1" vertex="1">
          <mxGeometry x="445" y="470" width="85" height="40" as="geometry" />
        </mxCell>
        <mxCell id="YNA8yrxuX6oOjRcGY2ZD-13" value="Color Scheme" style="ellipse;whiteSpace=wrap;html=1;" parent="1" vertex="1">
          <mxGeometry x="675" y="620" width="85" height="40" as="geometry" />
        </mxCell>
        <mxCell id="YNA8yrxuX6oOjRcGY2ZD-14" value="Catch Phrase" style="ellipse;whiteSpace=wrap;html=1;" parent="1" vertex="1">
          <mxGeometry x="755" y="560" width="85" height="40" as="geometry" />
        </mxCell>
        <mxCell id="YNA8yrxuX6oOjRcGY2ZD-15" value="" style="endArrow=none;html=1;exitX=1;exitY=1;exitDx=0;exitDy=0;" parent="1" source="YNA8yrxuX6oOjRcGY2ZD-11" edge="1">
          <mxGeometry width="50" height="50" relative="1" as="geometry">
            <mxPoint x="530" y="510" as="sourcePoint" />
            <mxPoint x="562" y="504" as="targetPoint" />
          </mxGeometry>
        </mxCell>
        <mxCell id="YNA8yrxuX6oOjRcGY2ZD-17" value="" style="endArrow=none;html=1;exitX=0.5;exitY=0;exitDx=0;exitDy=0;" parent="1" source="YNA8yrxuX6oOjRcGY2ZD-13" edge="1">
          <mxGeometry width="50" height="50" relative="1" as="geometry">
            <mxPoint x="655" y="610" as="sourcePoint" />
            <mxPoint x="662" y="550" as="targetPoint" />
          </mxGeometry>
        </mxCell>
        <mxCell id="YNA8yrxuX6oOjRcGY2ZD-18" value="" style="endArrow=none;html=1;entryX=0.047;entryY=0.225;entryDx=0;entryDy=0;entryPerimeter=0;" parent="1" target="YNA8yrxuX6oOjRcGY2ZD-14" edge="1">
          <mxGeometry width="50" height="50" relative="1" as="geometry">
            <mxPoint x="685" y="520" as="sourcePoint" />
            <mxPoint x="735" y="470" as="targetPoint" />
          </mxGeometry>
        </mxCell>
        <mxCell id="YNA8yrxuX6oOjRcGY2ZD-19" value="Location" style="rounded=0;whiteSpace=wrap;html=1;" parent="1" vertex="1">
          <mxGeometry x="340" y="220" width="120" height="60" as="geometry" />
        </mxCell>
        <mxCell id="YNA8yrxuX6oOjRcGY2ZD-20" value="&lt;u&gt;City&lt;/u&gt;" style="ellipse;whiteSpace=wrap;html=1;" parent="1" vertex="1">
          <mxGeometry x="280" y="320" width="100" height="40" as="geometry" />
        </mxCell>
        <mxCell id="YNA8yrxuX6oOjRcGY2ZD-21" value="Date Last Attacked" style="ellipse;whiteSpace=wrap;html=1;" parent="1" vertex="1">
          <mxGeometry x="445" y="320" width="100" height="40" as="geometry" />
        </mxCell>
        <mxCell id="YNA8yrxuX6oOjRcGY2ZD-22" value="" style="endArrow=none;html=1;exitX=0.44;exitY=-0.025;exitDx=0;exitDy=0;exitPerimeter=0;" parent="1" source="YNA8yrxuX6oOjRcGY2ZD-20" edge="1">
          <mxGeometry width="50" height="50" relative="1" as="geometry">
            <mxPoint x="292.5" y="330" as="sourcePoint" />
            <mxPoint x="342.5" y="280" as="targetPoint" />
          </mxGeometry>
        </mxCell>
        <mxCell id="YNA8yrxuX6oOjRcGY2ZD-23" value="" style="endArrow=none;html=1;exitX=1;exitY=1;exitDx=0;exitDy=0;entryX=0.5;entryY=0;entryDx=0;entryDy=0;" parent="1" source="YNA8yrxuX6oOjRcGY2ZD-19" target="YNA8yrxuX6oOjRcGY2ZD-21" edge="1">
          <mxGeometry width="50" height="50" relative="1" as="geometry">
            <mxPoint x="510" y="290" as="sourcePoint" />
            <mxPoint x="560" y="240" as="targetPoint" />
          </mxGeometry>
        </mxCell>
        <mxCell id="YNA8yrxuX6oOjRcGY2ZD-24" value="Defends" style="rhombus;whiteSpace=wrap;html=1;" parent="1" vertex="1">
          <mxGeometry x="130" y="290" width="80" height="80" as="geometry" />
        </mxCell>
        <mxCell id="YNA8yrxuX6oOjRcGY2ZD-25" value="Attacks" style="rhombus;whiteSpace=wrap;html=1;" parent="1" vertex="1">
          <mxGeometry x="585" y="290" width="80" height="80" as="geometry" />
        </mxCell>
        <mxCell id="YNA8yrxuX6oOjRcGY2ZD-26" value="" style="endArrow=classic;html=1;exitX=0.5;exitY=1;exitDx=0;exitDy=0;entryX=0.45;entryY=0.05;entryDx=0;entryDy=0;entryPerimeter=0;" parent="1" source="YNA8yrxuX6oOjRcGY2ZD-24" target="YNA8yrxuX6oOjRcGY2ZD-1" edge="1">
          <mxGeometry width="50" height="50" relative="1" as="geometry">
            <mxPoint x="170" y="410" as="sourcePoint" />
            <mxPoint x="220" y="360" as="targetPoint" />
          </mxGeometry>
        </mxCell>
        <mxCell id="YNA8yrxuX6oOjRcGY2ZD-27" value="" style="endArrow=classic;html=1;entryX=0;entryY=0.5;entryDx=0;entryDy=0;exitX=1;exitY=0;exitDx=0;exitDy=0;" parent="1" source="YNA8yrxuX6oOjRcGY2ZD-24" target="YNA8yrxuX6oOjRcGY2ZD-19" edge="1">
          <mxGeometry width="50" height="50" relative="1" as="geometry">
            <mxPoint x="170" y="250" as="sourcePoint" />
            <mxPoint x="220" y="200" as="targetPoint" />
          </mxGeometry>
        </mxCell>
        <mxCell id="YNA8yrxuX6oOjRcGY2ZD-28" value="" style="endArrow=none;html=1;entryX=0.5;entryY=1;entryDx=0;entryDy=0;exitX=0.5;exitY=0;exitDx=0;exitDy=0;" parent="1" source="YNA8yrxuX6oOjRcGY2ZD-10" target="YNA8yrxuX6oOjRcGY2ZD-25" edge="1">
          <mxGeometry width="50" height="50" relative="1" as="geometry">
            <mxPoint x="530" y="460" as="sourcePoint" />
            <mxPoint x="580" y="410" as="targetPoint" />
          </mxGeometry>
        </mxCell>
        <mxCell id="YNA8yrxuX6oOjRcGY2ZD-29" value="" style="endArrow=none;html=1;entryX=0;entryY=0;entryDx=0;entryDy=0;exitX=1;exitY=0.5;exitDx=0;exitDy=0;" parent="1" source="YNA8yrxuX6oOjRcGY2ZD-19" target="YNA8yrxuX6oOjRcGY2ZD-25" edge="1">
          <mxGeometry width="50" height="50" relative="1" as="geometry">
            <mxPoint x="530" y="280" as="sourcePoint" />
            <mxPoint x="580" y="240" as="targetPoint" />
          </mxGeometry>
        </mxCell>
        <mxCell id="YNA8yrxuX6oOjRcGY2ZD-30" value="Enemies" style="rhombus;whiteSpace=wrap;html=1;" parent="1" vertex="1">
          <mxGeometry x="380" y="520" width="80" height="80" as="geometry" />
        </mxCell>
        <mxCell id="YNA8yrxuX6oOjRcGY2ZD-31" value="" style="endArrow=none;html=1;entryX=0;entryY=0.5;entryDx=0;entryDy=0;exitX=1;exitY=0.75;exitDx=0;exitDy=0;" parent="1" source="YNA8yrxuX6oOjRcGY2ZD-1" target="YNA8yrxuX6oOjRcGY2ZD-30" edge="1">
          <mxGeometry width="50" height="50" relative="1" as="geometry">
            <mxPoint x="230" y="570" as="sourcePoint" />
            <mxPoint x="280" y="520" as="targetPoint" />
          </mxGeometry>
        </mxCell>
        <mxCell id="YNA8yrxuX6oOjRcGY2ZD-32" value="" style="endArrow=none;html=1;exitX=1;exitY=0.5;exitDx=0;exitDy=0;entryX=0;entryY=0.617;entryDx=0;entryDy=0;entryPerimeter=0;" parent="1" source="YNA8yrxuX6oOjRcGY2ZD-30" target="YNA8yrxuX6oOjRcGY2ZD-10" edge="1">
          <mxGeometry width="50" height="50" relative="1" as="geometry">
            <mxPoint x="480" y="590" as="sourcePoint" />
            <mxPoint x="570" y="530" as="targetPoint" />
          </mxGeometry>
        </mxCell>
        <mxCell id="YNA8yrxuX6oOjRcGY2ZD-33" value="" style="endArrow=classic;html=1;entryX=0.75;entryY=1;entryDx=0;entryDy=0;exitX=0;exitY=0;exitDx=0;exitDy=0;" parent="1" source="YNA8yrxuX6oOjRcGY2ZD-34" target="YNA8yrxuX6oOjRcGY2ZD-1" edge="1">
          <mxGeometry width="50" height="50" relative="1" as="geometry">
            <mxPoint x="370" y="740" as="sourcePoint" />
            <mxPoint x="290" y="680" as="targetPoint" />
          </mxGeometry>
        </mxCell>
        <mxCell id="YNA8yrxuX6oOjRcGY2ZD-34" value="Operates" style="rhombus;whiteSpace=wrap;html=1;" parent="1" vertex="1">
          <mxGeometry x="315" y="720" width="80" height="80" as="geometry" />
        </mxCell>
        <mxCell id="YNA8yrxuX6oOjRcGY2ZD-35" value="" style="endArrow=classic;html=1;entryX=0.5;entryY=1;entryDx=0;entryDy=0;exitX=1;exitY=0;exitDx=0;exitDy=0;" parent="1" source="YNA8yrxuX6oOjRcGY2ZD-36" target="YNA8yrxuX6oOjRcGY2ZD-10" edge="1">
          <mxGeometry width="50" height="50" relative="1" as="geometry">
            <mxPoint x="500" y="740" as="sourcePoint" />
            <mxPoint x="510" y="460" as="targetPoint" />
          </mxGeometry>
        </mxCell>
        <mxCell id="YNA8yrxuX6oOjRcGY2ZD-36" value="Operates" style="rhombus;whiteSpace=wrap;html=1;" parent="1" vertex="1">
          <mxGeometry x="445" y="720" width="80" height="80" as="geometry" />
        </mxCell>
        <mxCell id="YNA8yrxuX6oOjRcGY2ZD-37" value="Vehicle" style="rounded=0;whiteSpace=wrap;html=1;" parent="1" vertex="1">
          <mxGeometry x="360" y="850" width="120" height="60" as="geometry" />
        </mxCell>
        <mxCell id="YNA8yrxuX6oOjRcGY2ZD-38" value="" style="endArrow=classic;html=1;exitX=1;exitY=1;exitDx=0;exitDy=0;" parent="1" source="YNA8yrxuX6oOjRcGY2ZD-34" target="YNA8yrxuX6oOjRcGY2ZD-37" edge="1">
          <mxGeometry width="50" height="50" relative="1" as="geometry">
            <mxPoint x="200" y="890" as="sourcePoint" />
            <mxPoint x="250" y="840" as="targetPoint" />
          </mxGeometry>
        </mxCell>
        <mxCell id="YNA8yrxuX6oOjRcGY2ZD-39" value="" style="endArrow=classic;html=1;" parent="1" source="YNA8yrxuX6oOjRcGY2ZD-36" edge="1">
          <mxGeometry width="50" height="50" relative="1" as="geometry">
            <mxPoint x="404.25" y="780" as="sourcePoint" />
            <mxPoint x="435.75" y="850" as="targetPoint" />
          </mxGeometry>
        </mxCell>
        <mxCell id="YNA8yrxuX6oOjRcGY2ZD-40" value="" style="endArrow=classic;html=1;entryX=0.25;entryY=1;entryDx=0;entryDy=0;exitX=0.5;exitY=0;exitDx=0;exitDy=0;" parent="1" source="YNA8yrxuX6oOjRcGY2ZD-41" target="YNA8yrxuX6oOjRcGY2ZD-1" edge="1">
          <mxGeometry width="50" height="50" relative="1" as="geometry">
            <mxPoint x="110" y="740" as="sourcePoint" />
            <mxPoint x="150" y="680" as="targetPoint" />
          </mxGeometry>
        </mxCell>
        <mxCell id="YNA8yrxuX6oOjRcGY2ZD-41" value="Partnership" style="rhombus;whiteSpace=wrap;html=1;" parent="1" vertex="1">
          <mxGeometry x="80" y="750" width="80" height="80" as="geometry" />
        </mxCell>
        <mxCell id="YNA8yrxuX6oOjRcGY2ZD-43" value="Superpower" style="ellipse;whiteSpace=wrap;html=1;" parent="1" vertex="1">
          <mxGeometry x="10" y="480" width="80" height="30" as="geometry" />
        </mxCell>
        <mxCell id="YNA8yrxuX6oOjRcGY2ZD-45" value="" style="endArrow=none;html=1;exitX=1;exitY=1;exitDx=0;exitDy=0;entryX=0;entryY=0.5;entryDx=0;entryDy=0;" parent="1" source="YNA8yrxuX6oOjRcGY2ZD-43" target="YNA8yrxuX6oOjRcGY2ZD-1" edge="1">
          <mxGeometry width="50" height="50" relative="1" as="geometry">
            <mxPoint x="60" y="550" as="sourcePoint" />
            <mxPoint x="110" y="520" as="targetPoint" />
          </mxGeometry>
        </mxCell>
        <mxCell id="YNA8yrxuX6oOjRcGY2ZD-46" value="Superpower" style="ellipse;whiteSpace=wrap;html=1;" parent="1" vertex="1">
          <mxGeometry x="10" y="480" width="80" height="30" as="geometry" />
        </mxCell>
        <mxCell id="YNA8yrxuX6oOjRcGY2ZD-47" value="" style="endArrow=none;html=1;exitX=1;exitY=1;exitDx=0;exitDy=0;entryX=0;entryY=0.5;entryDx=0;entryDy=0;" parent="1" source="YNA8yrxuX6oOjRcGY2ZD-46" edge="1">
          <mxGeometry width="50" height="50" relative="1" as="geometry">
            <mxPoint x="60" y="550" as="sourcePoint" />
            <mxPoint x="115" y="520" as="targetPoint" />
          </mxGeometry>
        </mxCell>
        <mxCell id="YNA8yrxuX6oOjRcGY2ZD-48" value="Weakness" style="ellipse;whiteSpace=wrap;html=1;" parent="1" vertex="1">
          <mxGeometry x="20" y="420" width="80" height="30" as="geometry" />
        </mxCell>
        <mxCell id="YNA8yrxuX6oOjRcGY2ZD-49" value="" style="endArrow=none;html=1;exitX=1;exitY=1;exitDx=0;exitDy=0;entryX=0;entryY=0;entryDx=0;entryDy=0;" parent="1" source="YNA8yrxuX6oOjRcGY2ZD-48" target="YNA8yrxuX6oOjRcGY2ZD-1" edge="1">
          <mxGeometry width="50" height="50" relative="1" as="geometry">
            <mxPoint x="70" y="490" as="sourcePoint" />
            <mxPoint x="125" y="460" as="targetPoint" />
          </mxGeometry>
        </mxCell>
        <mxCell id="YNA8yrxuX6oOjRcGY2ZD-50" value="Evil Plans" style="ellipse;whiteSpace=wrap;html=1;" parent="1" vertex="1">
          <mxGeometry x="740" y="500" width="80" height="40" as="geometry" />
        </mxCell>
        <mxCell id="YNA8yrxuX6oOjRcGY2ZD-51" value="" style="endArrow=none;html=1;entryX=0;entryY=0.5;entryDx=0;entryDy=0;exitX=1;exitY=0.25;exitDx=0;exitDy=0;" parent="1" source="YNA8yrxuX6oOjRcGY2ZD-10" target="YNA8yrxuX6oOjRcGY2ZD-50" edge="1">
          <mxGeometry width="50" height="50" relative="1" as="geometry">
            <mxPoint x="690" y="510" as="sourcePoint" />
            <mxPoint x="780" y="450" as="targetPoint" />
          </mxGeometry>
        </mxCell>
        <mxCell id="YNA8yrxuX6oOjRcGY2ZD-52" value="Sidekick" style="rounded=0;whiteSpace=wrap;html=1;" parent="1" vertex="1">
          <mxGeometry x="90" y="901.5" width="110" height="40" as="geometry" />
        </mxCell>
        <mxCell id="YNA8yrxuX6oOjRcGY2ZD-54" value="&lt;u&gt;Name&lt;/u&gt;" style="ellipse;whiteSpace=wrap;html=1;" parent="1" vertex="1">
          <mxGeometry x="30" y="970" width="85" height="40" as="geometry" />
        </mxCell>
        <mxCell id="YNA8yrxuX6oOjRcGY2ZD-58" value="" style="endArrow=none;html=1;exitX=0.376;exitY=-0.025;exitDx=0;exitDy=0;exitPerimeter=0;entryX=0;entryY=1;entryDx=0;entryDy=0;" parent="1" source="YNA8yrxuX6oOjRcGY2ZD-54" target="YNA8yrxuX6oOjRcGY2ZD-52" edge="1">
          <mxGeometry width="50" height="50" relative="1" as="geometry">
            <mxPoint x="30" y="910" as="sourcePoint" />
            <mxPoint x="80" y="860" as="targetPoint" />
          </mxGeometry>
        </mxCell>
        <mxCell id="YNA8yrxuX6oOjRcGY2ZD-59" value="Color Scheme" style="ellipse;whiteSpace=wrap;html=1;" parent="1" vertex="1">
          <mxGeometry x="220" y="910" width="90" height="40" as="geometry" />
        </mxCell>
        <mxCell id="YNA8yrxuX6oOjRcGY2ZD-60" value="" style="endArrow=none;html=1;exitX=0;exitY=0.5;exitDx=0;exitDy=0;entryX=1;entryY=0.5;entryDx=0;entryDy=0;" parent="1" source="YNA8yrxuX6oOjRcGY2ZD-59" target="YNA8yrxuX6oOjRcGY2ZD-52" edge="1">
          <mxGeometry width="50" height="50" relative="1" as="geometry">
            <mxPoint x="160" y="940" as="sourcePoint" />
            <mxPoint x="175" y="880" as="targetPoint" />
          </mxGeometry>
        </mxCell>
        <mxCell id="YNA8yrxuX6oOjRcGY2ZD-61" value="&lt;u&gt;Name&lt;/u&gt;" style="ellipse;whiteSpace=wrap;html=1;" parent="1" vertex="1">
          <mxGeometry x="20" y="610" width="85" height="40" as="geometry" />
        </mxCell>
        <mxCell id="YNA8yrxuX6oOjRcGY2ZD-62" value="" style="endArrow=none;html=1;exitX=0.5;exitY=0;exitDx=0;exitDy=0;" parent="1" source="YNA8yrxuX6oOjRcGY2ZD-61" edge="1">
          <mxGeometry width="50" height="50" relative="1" as="geometry">
            <mxPoint x="85" y="580" as="sourcePoint" />
            <mxPoint x="115" y="550" as="targetPoint" />
          </mxGeometry>
        </mxCell>
        <mxCell id="YNA8yrxuX6oOjRcGY2ZD-63" value="Name" style="ellipse;whiteSpace=wrap;html=1;" parent="1" vertex="1">
          <mxGeometry x="420" y="970" width="85" height="40" as="geometry" />
        </mxCell>
        <mxCell id="YNA8yrxuX6oOjRcGY2ZD-64" value="" style="endArrow=none;html=1;exitX=0.5;exitY=0;exitDx=0;exitDy=0;entryX=0.633;entryY=0.95;entryDx=0;entryDy=0;entryPerimeter=0;" parent="1" source="YNA8yrxuX6oOjRcGY2ZD-63" target="YNA8yrxuX6oOjRcGY2ZD-37" edge="1">
          <mxGeometry width="50" height="50" relative="1" as="geometry">
            <mxPoint x="485" y="940" as="sourcePoint" />
            <mxPoint x="515" y="910" as="targetPoint" />
          </mxGeometry>
        </mxCell>
        <mxCell id="YNA8yrxuX6oOjRcGY2ZD-65" value="Make" style="ellipse;whiteSpace=wrap;html=1;" parent="1" vertex="1">
          <mxGeometry x="500" y="941.5" width="85" height="40" as="geometry" />
        </mxCell>
        <mxCell id="YNA8yrxuX6oOjRcGY2ZD-66" value="" style="endArrow=none;html=1;exitX=0.5;exitY=0;exitDx=0;exitDy=0;entryX=1;entryY=1;entryDx=0;entryDy=0;" parent="1" source="YNA8yrxuX6oOjRcGY2ZD-65" target="YNA8yrxuX6oOjRcGY2ZD-37" edge="1">
          <mxGeometry width="50" height="50" relative="1" as="geometry">
            <mxPoint x="565" y="911.5" as="sourcePoint" />
            <mxPoint x="515.96" y="878.5" as="targetPoint" />
          </mxGeometry>
        </mxCell>
        <mxCell id="YNA8yrxuX6oOjRcGY2ZD-67" value="Model" style="ellipse;whiteSpace=wrap;html=1;" parent="1" vertex="1">
          <mxGeometry x="530" y="891.5" width="85" height="40" as="geometry" />
        </mxCell>
        <mxCell id="YNA8yrxuX6oOjRcGY2ZD-68" value="" style="endArrow=none;html=1;exitX=0;exitY=0.5;exitDx=0;exitDy=0;entryX=1;entryY=0.4;entryDx=0;entryDy=0;entryPerimeter=0;" parent="1" source="YNA8yrxuX6oOjRcGY2ZD-67" target="YNA8yrxuX6oOjRcGY2ZD-37" edge="1">
          <mxGeometry width="50" height="50" relative="1" as="geometry">
            <mxPoint x="595" y="861.5" as="sourcePoint" />
            <mxPoint x="510" y="860" as="targetPoint" />
          </mxGeometry>
        </mxCell>
        <mxCell id="YNA8yrxuX6oOjRcGY2ZD-69" value="&lt;div&gt;Color Scheme&lt;/div&gt;" style="ellipse;whiteSpace=wrap;html=1;" parent="1" vertex="1">
          <mxGeometry x="550" y="841.5" width="85" height="40" as="geometry" />
        </mxCell>
        <mxCell id="YNA8yrxuX6oOjRcGY2ZD-70" value="" style="endArrow=none;html=1;exitX=0;exitY=0.5;exitDx=0;exitDy=0;entryX=1;entryY=0;entryDx=0;entryDy=0;" parent="1" source="YNA8yrxuX6oOjRcGY2ZD-69" target="YNA8yrxuX6oOjRcGY2ZD-37" edge="1">
          <mxGeometry width="50" height="50" relative="1" as="geometry">
            <mxPoint x="615" y="811.5" as="sourcePoint" />
            <mxPoint x="530" y="810" as="targetPoint" />
          </mxGeometry>
        </mxCell>
        <mxCell id="BMpGgQbmVWnXfdv5Ooc8-1" value="Population" style="ellipse;whiteSpace=wrap;html=1;" parent="1" vertex="1">
          <mxGeometry x="465" y="170" width="100" height="40" as="geometry" />
        </mxCell>
        <mxCell id="BMpGgQbmVWnXfdv5Ooc8-2" value="Vulnerable Structures" style="ellipse;whiteSpace=wrap;html=1;" parent="1" vertex="1">
          <mxGeometry x="240" y="160" width="100" height="40" as="geometry" />
        </mxCell>
        <mxCell id="BMpGgQbmVWnXfdv5Ooc8-3" value="" style="endArrow=none;html=1;exitX=0.75;exitY=0;exitDx=0;exitDy=0;entryX=0;entryY=0.5;entryDx=0;entryDy=0;" parent="1" source="YNA8yrxuX6oOjRcGY2ZD-19" target="BMpGgQbmVWnXfdv5Ooc8-1" edge="1">
          <mxGeometry width="50" height="50" relative="1" as="geometry">
            <mxPoint x="410" y="470" as="sourcePoint" />
            <mxPoint x="460" y="420" as="targetPoint" />
          </mxGeometry>
        </mxCell>
        <mxCell id="BMpGgQbmVWnXfdv5Ooc8-4" value="" style="endArrow=none;html=1;exitX=1;exitY=0.5;exitDx=0;exitDy=0;entryX=0.25;entryY=0;entryDx=0;entryDy=0;" parent="1" source="BMpGgQbmVWnXfdv5Ooc8-2" target="YNA8yrxuX6oOjRcGY2ZD-19" edge="1">
          <mxGeometry width="50" height="50" relative="1" as="geometry">
            <mxPoint x="410" y="470" as="sourcePoint" />
            <mxPoint x="460" y="420" as="targetPoint" />
          </mxGeometry>
        </mxCell>
        <mxCell id="me1XczbS7xCEWNjvjdIk-1" value="&lt;font style=&quot;font-size: 14px&quot;&gt;&lt;b&gt;MOE 8.5 Heroes and Villains&lt;/b&gt;&lt;br&gt;Camille Leonard cvl7qu&lt;br&gt;Derek Banks dmb3ey&lt;br&gt;&lt;/font&gt;" style="text;html=1;align=left;verticalAlign=middle;resizable=0;points=[];autosize=1;" vertex="1" parent="1">
          <mxGeometry x="50" y="40" width="200" height="50" as="geometry" />
        </mxCell>
        <mxCell id="me1XczbS7xCEWNjvjdIk-3" value="" style="endArrow=none;html=1;" edge="1" parent="1">
          <mxGeometry width="50" height="50" relative="1" as="geometry">
            <mxPoint x="115" y="900" as="sourcePoint" />
            <mxPoint x="115" y="830" as="targetPoint" />
          </mxGeometry>
        </mxCell>
        <mxCell id="me1XczbS7xCEWNjvjdIk-4" value="" style="endArrow=none;html=1;" edge="1" parent="1">
          <mxGeometry width="50" height="50" relative="1" as="geometry">
            <mxPoint x="125" y="901" as="sourcePoint" />
            <mxPoint x="125" y="831" as="targetPoint" />
          </mxGeometry>
        </mxCell>
      </root>
    </mxGraphModel>
  </diagram>
</mxfile>
